# File created by Blade
# Date/Time:  Tue Sep 30 19:36:50 2014
#---------------------------------------------------------
:version 1.10
:name HOM
:units
  mass 1.0
  length 1.000000
  angle deg
:documentation
     Acclaim Skeleton File
:root
   axis xyz
   order TX TY TZ RX RY RZ
   position 0.000000 0.000000 0.000000
   orientation 0 0 0
:bonedata
   begin
      id 1
      name Spine_dum
      direction 0.000000 1.000000 0.000000
      length 3.241213
      axis 0.0 0.0 0.0 xyz
   end
   begin
      id 2
      name LeftUpLeg_dum
      direction 1.000000 0.000000 0.000000
      length 3.434019
      axis 0.0 0.0 0.0 xyz
   end
   begin
      id 3
      name RightUpLeg_dum
      direction -1.000000 0.000000 0.000000
      length 3.434019
      axis 0.0 0.0 0.0 xyz
   end
   begin
      id 4
      name Spine
      direction 0.000000 1.000000 0.000000
      length 0.000000
      axis 0.0 0.0 0.0 xyz
      dof rx ry rz
   end
   begin
      id 5
      name Spine_dum1
      direction 0.000000 1.000000 0.000000
      length 18.382958
      axis 0.0 0.0 0.0 xyz
   end
   begin
      id 6
      name Spine_dum2
      direction 0.000000 1.000000 0.000000
      length 12.828261
      axis 0.0 0.0 0.0 xyz
   end
   begin
      id 7
      name Spine_dum3
      direction 0.000000 1.000000 0.000000
      length 12.828261
      axis 0.0 0.0 0.0 xyz
   end
   begin
      id 8
      name Head
      direction 0.000000 1.000000 0.000000
      length 4.527550
      axis 0.0 0.0 0.0 xyz
      dof rx ry rz
   end
   begin
      id 9
      name LeftShoulder
      direction 1.000000 0.000000 0.000000
      length 7.748055
      axis 0.0 0.0 -90.0 xyz
      dof rx ry rz
   end
   begin
      id 10
      name LeftArm
      direction 1.000000 0.000000 0.000000
      length 10.635614
      axis 0.0 0.0 -90.0 xyz
      dof rx ry rz
   end
   begin
      id 11
      name LeftForeArm
      direction 1.000000 0.000000 0.000000
      length 8.346755
      axis 0.0 0.0 -90.0 xyz
      dof ry rz rx
   end
   begin
      id 12
      name LeftHand
      direction 0.000000 0.000000 0.000000
      length 0.000000
      axis 0.0 0.0 -90.0 xyz
      dof rx ry rz
   end
   begin
      id 13
      name LeftHand_dum1
      direction 0.000000 0.000000 0.000000
      length 0.000000
      axis 0.0 0.0 -90.0 xyz
   end
   begin
      id 14
      name LeftHand_dum2
      direction 1.000000 0.000000 0.000000
      length 3.937000
      axis 0.0 0.0 -90.0 xyz
   end
   begin
      id 15
      name LeftHandThumb1
      direction 0.000000 0.000000 1.000000
      length 3.937000
      axis 0.0 0.0 -90.0 xyz
      dof rx rz ry
   end
   begin
      id 16
      name RightShoulder
      direction -1.000000 0.000000 0.000000
      length 7.748055
      axis 0.0 0.0 90.0 xyz
      dof rx ry rz
   end
   begin
      id 17
      name RightArm
      direction -1.000000 0.000000 0.000000
      length 10.635614
      axis 0.0 0.0 90.0 xyz
      dof rx ry rz
   end
   begin
      id 18
      name RightForeArm
      direction -1.000000 0.000000 0.000000
      length 8.346755
      axis 0.0 0.0 90.0 xyz
      dof ry rz rx
   end
   begin
      id 19
      name RightHand
      direction 0.000000 0.000000 0.000000
      length 0.000000
      axis 0.0 0.0 90.0 xyz
      dof rx ry rz
   end
   begin
      id 20
      name RightHand_dum1
      direction 0.000000 0.000000 0.000000
      length 0.000000
      axis 0.0 0.0 90.0 xyz
   end
   begin
      id 21
      name RightHand_dum2
      direction -1.000000 0.000000 0.000000
      length 3.937000
      axis 0.0 0.0 90.0 xyz
   end
   begin
      id 22
      name RightHandThumb1
      direction 0.000000 0.000000 1.000000
      length 3.937000
      axis 0.0 0.0 90.0 xyz
      dof rx rz ry
   end
   begin
      id 23
      name LeftUpLeg
      direction 0.000000 -1.000000 0.000000
      length 15.713025
      axis 0.0 0.0 0.0 xyz
      dof rx ry rz
   end
   begin
      id 24
      name LeftLeg
      direction 0.000000 -1.000000 0.000000
      length 14.435119
      axis 0.0 0.0 0.0 xyz
      dof rx ry rz
   end
   begin
      id 25
      name LeftFoot
      direction 0.000000 -0.258819 0.965926
      length 4.938895
      axis 15.0 0.0 0.0 xyz
      dof rx ry rz
   end
   begin
      id 26
      name LeftToeBase
      direction 0.000000 0.000000 1.000000
      length 2.952750
      axis 0.0 0.0 0.0 xyz
      dof rx ry rz
   end
   begin
      id 27
      name RightUpLeg
      direction 0.000000 -1.000000 0.000000
      length 15.713025
      axis 0.0 0.0 0.0 xyz
      dof rx ry rz
   end
   begin
      id 28
      name RightLeg
      direction 0.000000 -1.000000 0.000000
      length 14.435119
      axis 0.0 0.0 0.0 xyz
      dof rx ry rz
   end
   begin
      id 29
      name RightFoot
      direction 0.000000 -0.258819 0.965926
      length 4.938895
      axis 15.0 0.0 0.0 xyz
      dof rx ry rz
   end
   begin
      id 30
      name RightToeBase
      direction 0.000000 0.000000 1.000000
      length 2.952750
      axis 0.0 0.0 0.0 xyz
      dof rx ry rz
   end
:hierarchy
   begin
      root Spine_dum LeftUpLeg_dum RightUpLeg_dum
      Spine_dum Spine
      LeftUpLeg_dum LeftUpLeg
      RightUpLeg_dum RightUpLeg
      Spine Spine_dum1 Spine_dum2 Spine_dum3
      Spine_dum1 Head
      Spine_dum2 LeftShoulder
      Spine_dum3 RightShoulder
      LeftShoulder LeftArm
      LeftArm LeftForeArm
      LeftForeArm LeftHand
      LeftHand LeftHand_dum1 LeftHand_dum2
      LeftHand_dum1 LeftHandThumb1
      RightShoulder RightArm
      RightArm RightForeArm
      RightForeArm RightHand
      RightHand RightHand_dum1 RightHand_dum2
      RightHand_dum1 RightHandThumb1
      LeftUpLeg LeftLeg
      LeftLeg LeftFoot
      LeftFoot LeftToeBase
      RightUpLeg RightLeg
      RightLeg RightFoot
      RightFoot RightToeBase
   end

# File created by Blade
# Date/Time:  Tue Sep 23 19:06:47 2014
# Frame Rate: 120.000 fps
#------------------------------------------------------
:FULLY-SPECIFIED
:DEGREES
453
root 2.390157 34.572822 -5.514044 46.465913 -6.125031 -46.489908
Spine -43.461396 29.102656 11.944702
Head -5.127114 -6.234037 23.514372
LeftShoulder -19.500285 12.899001 42.469878
LeftArm 84.381895 -78.516505 -29.210332
LeftForeArm 98.162675 -0.000000 15.833373
LeftHand -15.096473 -0.000000 60.646035
LeftHandThumb1 -26.253704 0.000000 33.147579
RightShoulder -9.715306 -4.619945 -19.232248
RightArm 114.039288 39.716609 149.476938
RightForeArm 46.421844 -0.000000 65.416690
RightHand -0.938094 -0.000000 23.720105
RightHandThumb1 -24.326973 -0.000000 -32.862282
LeftUpLeg -38.998056 28.825717 31.540035
LeftLeg 18.957441 -0.000000 -0.000000
LeftFoot -8.118342 31.460849 7.000513
LeftToeBase -0.173023 -0.000000 0.000000
RightUpLeg -182.861475 -37.039762 55.498815
RightLeg -5.325882 -0.000000 0.000000
RightFoot 30.394554 -21.561775 12.939777
RightToeBase 34.692203 -0.000000 -0.000000
454
root 2.390930 34.579352 -5.524218 46.635767 -6.258120 -46.511944
Spine -43.482732 29.111338 11.902780
Head -5.185728 -6.139813 23.578671
LeftShoulder -19.489625 12.790454 42.513023
LeftArm 83.726454 -78.508587 -28.521272
LeftForeArm 98.221946 -0.000000 15.798620
LeftHand -15.227175 0.000000 60.721011
LeftHandThumb1 -26.253704 0.000000 33.147579
RightShoulder -9.731224 -4.609233 -19.203545
RightArm 114.066759 39.715433 149.473126
RightForeArm 46.358446 -0.000000 65.394276
RightHand -0.828380 -0.000000 23.679342
RightHandThumb1 -24.326973 -0.000000 -32.862282
LeftUpLeg -39.045619 28.954353 31.454975
LeftLeg 18.887228 -0.000000 -0.000000
LeftFoot -8.044100 31.456864 7.036988
LeftToeBase -0.139964 -0.000000 0.000000
RightUpLeg -182.887963 -37.077883 55.497354
RightLeg -5.283857 -0.000000 0.000000
RightFoot 30.435274 -21.503023 12.820944
RightToeBase 34.648705 -0.000000 -0.000000
455
root 2.391545 34.585710 -5.535528 46.811758 -6.362788 -46.507825
Spine -43.509657 29.085900 11.878036
Head -5.216274 -6.065970 23.576623
LeftShoulder -19.488624 12.775853 42.518739
LeftArm 83.655505 -78.565370 -28.512001
LeftForeArm 98.099179 -0.000000 15.895153
LeftHand -15.127114 -0.000000 60.667153
LeftHandThumb1 -26.253704 0.000000 33.147579
RightShoulder -9.776775 -4.482513 -19.219046
RightArm 113.977499 39.753471 149.424332
RightForeArm 46.373231 -0.000000 65.357107
RightHand -0.901200 -0.000000 23.834724
RightHandThumb1 -24.326973 -0.000000 -32.862282
LeftUpLeg -39.136596 29.055209 31.356275
LeftLeg 18.822062 -0.000000 -0.000000
LeftFoot -7.947955 31.461069 7.071967
LeftToeBase -0.134592 -0.000000 0.000000
RightUpLeg -182.958773 -37.143946 55.521494
RightLeg -5.256524 -0.000000 0.000000
RightFoot 30.460663 -21.490322 12.741353
RightToeBase 34.566370 -0.000000 -0.000000
456
root 2.393482 34.593179 -5.547335 46.994475 -6.476531 -46.527619
Spine -43.544397 29.098020 11.854326
Head -5.233410 -5.992337 23.574564
LeftShoulder -19.383600 12.994133 42.420802
LeftArm 83.173391 -78.946388 -27.937771
LeftForeArm 98.346542 0.000000 15.638225
LeftHand -15.445629 0.000000 61.049415
LeftHandThumb1 -26.253704 0.000000 33.147579
RightShoulder -9.849847 -4.348572 -19.233278
RightArm 113.782766 39.821729 149.250905
RightForeArm 46.260451 -0.000000 65.356113
RightHand -0.777608 -0.000000 23.725232
RightHandThumb1 -24.326973 -0.000000 -32.862282
LeftUpLeg -39.210666 29.190738 31.256188
LeftLeg 18.732391 -0.000000 -0.000000
LeftFoot -7.835642 31.461828 7.162200
LeftToeBase -0.110591 -0.000000 0.000000
RightUpLeg -182.984062 -37.185272 55.543447
RightLeg -5.255173 -0.000000 0.000000
RightFoot 30.528009 -21.348620 12.582235
RightToeBase 34.275723 -0.000000 -0.000000
457
root 2.394138 34.599608 -5.560587 47.184386 -6.603505 -46.540224
Spine -43.597765 29.112755 11.793635
Head -5.234693 -5.906320 23.596901
LeftShoulder -19.348491 13.048795 42.395913
LeftArm 83.005858 -79.091899 -27.750778
LeftForeArm 98.340873 -0.000000 15.562391
LeftHand -15.587702 0.000000 61.060793
LeftHandThumb1 -26.253704 0.000000 33.147579
RightShoulder -9.891737 -4.334600 -19.226660
RightArm 113.734156 39.812090 149.224263
RightForeArm 46.337013 -0.000000 65.365681
RightHand -0.847751 -0.000000 23.823429
RightHandThumb1 -24.326973 -0.000000 -32.862282
LeftUpLeg -39.268278 29.312173 31.148280
LeftLeg 18.598301 -0.000000 -0.000000
LeftFoot -7.665474 31.516644 7.318863
LeftToeBase -0.096367 -0.000000 0.000000
RightUpLeg -182.996467 -37.292697 55.538526
RightLeg -5.303060 -0.000000 0.000000
RightFoot 30.534256 -21.381986 12.516541
RightToeBase 34.248322 -0.000000 -0.000000
458
root 2.393855 34.604705 -5.571876 47.350313 -6.733266 -46.558613
Spine -43.624901 29.109853 11.767788
Head -5.188825 -5.762902 23.605597
LeftShoulder -19.411881 12.834500 42.458915
LeftArm 83.527261 -78.853408 -28.257587
LeftForeArm 98.346767 -0.000000 15.476048
LeftHand -15.590840 -0.000000 61.001532
LeftHandThumb1 -26.253704 0.000000 33.147579
RightShoulder -9.863878 -4.377561 -19.203937
RightArm 113.749469 39.789249 149.200665
RightForeArm 46.231503 0.000000 65.424250
RightHand -0.846335 -0.000000 23.741642
RightHandThumb1 -24.326973 -0.000000 -32.862282
LeftUpLeg -39.291514 29.443555 31.039346
LeftLeg 18.445655 -0.000000 -0.000000
LeftFoot -7.505863 31.563639 7.507017
LeftToeBase -0.029573 -0.000000 0.000000
RightUpLeg -182.982896 -37.347817 55.518696
RightLeg -5.360231 -0.000000 0.000000
RightFoot 30.532606 -21.392668 12.521804
RightToeBase 34.239086 -0.000000 -0.000000
459
root 2.395552 34.610798 -5.583538 47.529437 -6.867988 -46.602182
Spine -43.646246 29.117878 11.789693
Head -5.084895 -5.635636 23.573905
LeftShoulder -19.350180 12.967383 42.393897
LeftArm 83.256259 -79.056664 -27.916886
LeftForeArm 98.705271 -0.000000 15.207385
LeftHand -16.110878 -0.000000 61.291077
LeftHandThumb1 -26.253704 0.000000 33.147579
RightShoulder -9.826835 -4.337555 -19.204580
RightArm 113.656837 39.823798 149.093290
RightForeArm 46.144259 0.000000 65.439024
RightHand -0.772161 -0.000000 23.648005
RightHandThumb1 -24.326973 -0.000000 -32.862282
LeftUpLeg -39.281764 29.541941 30.981807
LeftLeg 18.268709 -0.000000 -0.000000
LeftFoot -7.316349 31.660907 7.730983
LeftToeBase 0.034240 -0.000000 -0.000000
RightUpLeg -182.932286 -37.364358 55.508185
RightLeg -5.437893 -0.000000 0.000000
RightFoot 30.445760 -21.420617 12.705825
RightToeBase 34.208233 -0.000000 -0.000000
